<mxfile host="www.draw.io" modified="2020-02-10T13:43:19.122Z" agent="Mozilla/5.0 (Macintosh; Intel Mac OS X 10_14_6) AppleWebKit/537.36 (KHTML, like Gecko) Chrome/79.0.3945.130 Safari/537.36" etag="YwOH5eW0Suo19EL4AWlr" version="12.6.7" type="github">
  <diagram name="Page-1" id="9f46799a-70d6-7492-0946-bef42562c5a5">
    <mxGraphModel dx="2286" dy="565" grid="1" gridSize="10" guides="1" tooltips="1" connect="1" arrows="1" fold="1" page="1" pageScale="1" pageWidth="1100" pageHeight="850" background="#ffffff" math="0" shadow="0">
      <root>
        <mxCell id="0"/>
        <mxCell id="1" parent="0"/>
        <mxCell id="_kbIOJYJlD1pCjOppb1s-5" value="제품" style="swimlane;fontStyle=1;align=center;verticalAlign=top;childLayout=stackLayout;horizontal=1;startSize=26;horizontalStack=0;resizeParent=1;resizeParentMax=0;resizeLast=0;collapsible=1;marginBottom=0;" parent="1" vertex="1">
          <mxGeometry x="-80" y="370" width="140" height="84" as="geometry"/>
        </mxCell>
        <mxCell id="_kbIOJYJlD1pCjOppb1s-6" value="+ stock&#xa;" style="text;strokeColor=none;fillColor=none;align=left;verticalAlign=top;spacingLeft=4;spacingRight=4;overflow=hidden;rotatable=0;points=[[0,0.5],[1,0.5]];portConstraint=eastwest;" parent="_kbIOJYJlD1pCjOppb1s-5" vertex="1">
          <mxGeometry y="26" width="140" height="24" as="geometry"/>
        </mxCell>
        <mxCell id="_kbIOJYJlD1pCjOppb1s-7" value="" style="line;strokeWidth=1;fillColor=none;align=left;verticalAlign=middle;spacingTop=-1;spacingLeft=3;spacingRight=3;rotatable=0;labelPosition=right;points=[];portConstraint=eastwest;" parent="_kbIOJYJlD1pCjOppb1s-5" vertex="1">
          <mxGeometry y="50" width="140" height="8" as="geometry"/>
        </mxCell>
        <mxCell id="_kbIOJYJlD1pCjOppb1s-8" value="+ 제고있어(boolean): boolean" style="text;strokeColor=none;fillColor=none;align=left;verticalAlign=top;spacingLeft=4;spacingRight=4;overflow=hidden;rotatable=0;points=[[0,0.5],[1,0.5]];portConstraint=eastwest;" parent="_kbIOJYJlD1pCjOppb1s-5" vertex="1">
          <mxGeometry y="58" width="140" height="26" as="geometry"/>
        </mxCell>
        <mxCell id="_kbIOJYJlD1pCjOppb1s-10" value="카트" style="swimlane;fontStyle=1;align=center;verticalAlign=top;childLayout=stackLayout;horizontal=1;startSize=26;horizontalStack=0;resizeParent=1;resizeParentMax=0;resizeLast=0;collapsible=1;marginBottom=0;" parent="1" vertex="1">
          <mxGeometry x="530" y="369" width="160" height="86" as="geometry"/>
        </mxCell>
        <mxCell id="_kbIOJYJlD1pCjOppb1s-11" value="+ field: type" style="text;strokeColor=none;fillColor=none;align=left;verticalAlign=top;spacingLeft=4;spacingRight=4;overflow=hidden;rotatable=0;points=[[0,0.5],[1,0.5]];portConstraint=eastwest;" parent="_kbIOJYJlD1pCjOppb1s-10" vertex="1">
          <mxGeometry y="26" width="160" height="26" as="geometry"/>
        </mxCell>
        <mxCell id="_kbIOJYJlD1pCjOppb1s-12" value="" style="line;strokeWidth=1;fillColor=none;align=left;verticalAlign=middle;spacingTop=-1;spacingLeft=3;spacingRight=3;rotatable=0;labelPosition=right;points=[];portConstraint=eastwest;" parent="_kbIOJYJlD1pCjOppb1s-10" vertex="1">
          <mxGeometry y="52" width="160" height="8" as="geometry"/>
        </mxCell>
        <mxCell id="_kbIOJYJlD1pCjOppb1s-13" value="+ method(type): type" style="text;strokeColor=none;fillColor=none;align=left;verticalAlign=top;spacingLeft=4;spacingRight=4;overflow=hidden;rotatable=0;points=[[0,0.5],[1,0.5]];portConstraint=eastwest;" parent="_kbIOJYJlD1pCjOppb1s-10" vertex="1">
          <mxGeometry y="60" width="160" height="26" as="geometry"/>
        </mxCell>
        <mxCell id="_kbIOJYJlD1pCjOppb1s-14" value="사용자" style="swimlane;fontStyle=1;align=center;verticalAlign=top;childLayout=stackLayout;horizontal=1;startSize=26;horizontalStack=0;resizeParent=1;resizeParentMax=0;resizeLast=0;collapsible=1;marginBottom=0;" parent="1" vertex="1">
          <mxGeometry x="739.76" y="368" width="160" height="86" as="geometry"/>
        </mxCell>
        <mxCell id="_kbIOJYJlD1pCjOppb1s-15" value="+ field: type" style="text;strokeColor=none;fillColor=none;align=left;verticalAlign=top;spacingLeft=4;spacingRight=4;overflow=hidden;rotatable=0;points=[[0,0.5],[1,0.5]];portConstraint=eastwest;" parent="_kbIOJYJlD1pCjOppb1s-14" vertex="1">
          <mxGeometry y="26" width="160" height="26" as="geometry"/>
        </mxCell>
        <mxCell id="_kbIOJYJlD1pCjOppb1s-16" value="" style="line;strokeWidth=1;fillColor=none;align=left;verticalAlign=middle;spacingTop=-1;spacingLeft=3;spacingRight=3;rotatable=0;labelPosition=right;points=[];portConstraint=eastwest;" parent="_kbIOJYJlD1pCjOppb1s-14" vertex="1">
          <mxGeometry y="52" width="160" height="8" as="geometry"/>
        </mxCell>
        <mxCell id="_kbIOJYJlD1pCjOppb1s-17" value="+ method(type): type" style="text;strokeColor=none;fillColor=none;align=left;verticalAlign=top;spacingLeft=4;spacingRight=4;overflow=hidden;rotatable=0;points=[[0,0.5],[1,0.5]];portConstraint=eastwest;" parent="_kbIOJYJlD1pCjOppb1s-14" vertex="1">
          <mxGeometry y="60" width="160" height="26" as="geometry"/>
        </mxCell>
        <mxCell id="_kbIOJYJlD1pCjOppb1s-18" value="결재" style="swimlane;fontStyle=1;align=center;verticalAlign=top;childLayout=stackLayout;horizontal=1;startSize=26;horizontalStack=0;resizeParent=1;resizeParentMax=0;resizeLast=0;collapsible=1;marginBottom=0;" parent="1" vertex="1">
          <mxGeometry x="939.76" y="368" width="160" height="86" as="geometry"/>
        </mxCell>
        <mxCell id="_kbIOJYJlD1pCjOppb1s-19" value="+ field: type" style="text;strokeColor=none;fillColor=none;align=left;verticalAlign=top;spacingLeft=4;spacingRight=4;overflow=hidden;rotatable=0;points=[[0,0.5],[1,0.5]];portConstraint=eastwest;" parent="_kbIOJYJlD1pCjOppb1s-18" vertex="1">
          <mxGeometry y="26" width="160" height="26" as="geometry"/>
        </mxCell>
        <mxCell id="_kbIOJYJlD1pCjOppb1s-20" value="" style="line;strokeWidth=1;fillColor=none;align=left;verticalAlign=middle;spacingTop=-1;spacingLeft=3;spacingRight=3;rotatable=0;labelPosition=right;points=[];portConstraint=eastwest;" parent="_kbIOJYJlD1pCjOppb1s-18" vertex="1">
          <mxGeometry y="52" width="160" height="8" as="geometry"/>
        </mxCell>
        <mxCell id="_kbIOJYJlD1pCjOppb1s-21" value="+ method(type): type" style="text;strokeColor=none;fillColor=none;align=left;verticalAlign=top;spacingLeft=4;spacingRight=4;overflow=hidden;rotatable=0;points=[[0,0.5],[1,0.5]];portConstraint=eastwest;" parent="_kbIOJYJlD1pCjOppb1s-18" vertex="1">
          <mxGeometry y="60" width="160" height="26" as="geometry"/>
        </mxCell>
        <mxCell id="_kbIOJYJlD1pCjOppb1s-51" style="edgeStyle=orthogonalEdgeStyle;rounded=0;orthogonalLoop=1;jettySize=auto;html=1;entryX=0.5;entryY=0;entryDx=0;entryDy=0;dashed=1;" parent="1" source="_kbIOJYJlD1pCjOppb1s-30" target="_kbIOJYJlD1pCjOppb1s-46" edge="1">
          <mxGeometry relative="1" as="geometry"/>
        </mxCell>
        <mxCell id="_kbIOJYJlD1pCjOppb1s-30" value="제품 서비스" style="swimlane;fontStyle=1;align=center;verticalAlign=top;childLayout=stackLayout;horizontal=1;startSize=26;horizontalStack=0;resizeParent=1;resizeParentMax=0;resizeLast=0;collapsible=1;marginBottom=0;" parent="1" vertex="1">
          <mxGeometry x="-60" y="150" width="230" height="160" as="geometry"/>
        </mxCell>
        <mxCell id="_kbIOJYJlD1pCjOppb1s-31" value="+ field: type" style="text;strokeColor=none;fillColor=none;align=left;verticalAlign=top;spacingLeft=4;spacingRight=4;overflow=hidden;rotatable=0;points=[[0,0.5],[1,0.5]];portConstraint=eastwest;" parent="_kbIOJYJlD1pCjOppb1s-30" vertex="1">
          <mxGeometry y="26" width="230" height="26" as="geometry"/>
        </mxCell>
        <mxCell id="_kbIOJYJlD1pCjOppb1s-32" value="" style="line;strokeWidth=1;fillColor=none;align=left;verticalAlign=middle;spacingTop=-1;spacingLeft=3;spacingRight=3;rotatable=0;labelPosition=right;points=[];portConstraint=eastwest;" parent="_kbIOJYJlD1pCjOppb1s-30" vertex="1">
          <mxGeometry y="52" width="230" height="8" as="geometry"/>
        </mxCell>
        <mxCell id="_kbIOJYJlD1pCjOppb1s-33" value="+ 제품을 조회한다.&#xa;+ 제품의 제고여부를 확인한다." style="text;strokeColor=none;fillColor=none;align=left;verticalAlign=top;spacingLeft=4;spacingRight=4;overflow=hidden;rotatable=0;points=[[0,0.5],[1,0.5]];portConstraint=eastwest;" parent="_kbIOJYJlD1pCjOppb1s-30" vertex="1">
          <mxGeometry y="60" width="230" height="100" as="geometry"/>
        </mxCell>
        <mxCell id="_kbIOJYJlD1pCjOppb1s-64" style="edgeStyle=orthogonalEdgeStyle;rounded=0;orthogonalLoop=1;jettySize=auto;html=1;entryX=0.521;entryY=-0.007;entryDx=0;entryDy=0;entryPerimeter=0;dashed=1;endArrow=block;endFill=1;" parent="1" source="_kbIOJYJlD1pCjOppb1s-38" target="_kbIOJYJlD1pCjOppb1s-60" edge="1">
          <mxGeometry relative="1" as="geometry">
            <Array as="points">
              <mxPoint x="485" y="340"/>
              <mxPoint x="400" y="340"/>
            </Array>
          </mxGeometry>
        </mxCell>
        <mxCell id="_kbIOJYJlD1pCjOppb1s-38" value="카트 서비스" style="swimlane;fontStyle=1;align=center;verticalAlign=top;childLayout=stackLayout;horizontal=1;startSize=26;horizontalStack=0;resizeParent=1;resizeParentMax=0;resizeLast=0;collapsible=1;marginBottom=0;" parent="1" vertex="1">
          <mxGeometry x="370" y="140" width="230" height="160" as="geometry"/>
        </mxCell>
        <mxCell id="_kbIOJYJlD1pCjOppb1s-39" value="+ field: type" style="text;strokeColor=none;fillColor=none;align=left;verticalAlign=top;spacingLeft=4;spacingRight=4;overflow=hidden;rotatable=0;points=[[0,0.5],[1,0.5]];portConstraint=eastwest;" parent="_kbIOJYJlD1pCjOppb1s-38" vertex="1">
          <mxGeometry y="26" width="230" height="26" as="geometry"/>
        </mxCell>
        <mxCell id="_kbIOJYJlD1pCjOppb1s-40" value="" style="line;strokeWidth=1;fillColor=none;align=left;verticalAlign=middle;spacingTop=-1;spacingLeft=3;spacingRight=3;rotatable=0;labelPosition=right;points=[];portConstraint=eastwest;" parent="_kbIOJYJlD1pCjOppb1s-38" vertex="1">
          <mxGeometry y="52" width="230" height="8" as="geometry"/>
        </mxCell>
        <mxCell id="_kbIOJYJlD1pCjOppb1s-41" value="+ 카트에 담긴 물건을 조회한다.( 사용자 )&#xa;+ 선택된 제품을 주문한다. ( 사용자, 제품 )&#xa;+ 제품을 카트에 담는다." style="text;strokeColor=none;fillColor=none;align=left;verticalAlign=top;spacingLeft=4;spacingRight=4;overflow=hidden;rotatable=0;points=[[0,0.5],[1,0.5]];portConstraint=eastwest;" parent="_kbIOJYJlD1pCjOppb1s-38" vertex="1">
          <mxGeometry y="60" width="230" height="100" as="geometry"/>
        </mxCell>
        <mxCell id="_kbIOJYJlD1pCjOppb1s-42" value="주문 서비스" style="swimlane;fontStyle=1;align=center;verticalAlign=top;childLayout=stackLayout;horizontal=1;startSize=26;horizontalStack=0;resizeParent=1;resizeParentMax=0;resizeLast=0;collapsible=1;marginBottom=0;" parent="1" vertex="1">
          <mxGeometry x="760" y="140" width="230" height="160" as="geometry"/>
        </mxCell>
        <mxCell id="_kbIOJYJlD1pCjOppb1s-43" value="+ field: type" style="text;strokeColor=none;fillColor=none;align=left;verticalAlign=top;spacingLeft=4;spacingRight=4;overflow=hidden;rotatable=0;points=[[0,0.5],[1,0.5]];portConstraint=eastwest;" parent="_kbIOJYJlD1pCjOppb1s-42" vertex="1">
          <mxGeometry y="26" width="230" height="26" as="geometry"/>
        </mxCell>
        <mxCell id="_kbIOJYJlD1pCjOppb1s-44" value="" style="line;strokeWidth=1;fillColor=none;align=left;verticalAlign=middle;spacingTop=-1;spacingLeft=3;spacingRight=3;rotatable=0;labelPosition=right;points=[];portConstraint=eastwest;" parent="_kbIOJYJlD1pCjOppb1s-42" vertex="1">
          <mxGeometry y="52" width="230" height="8" as="geometry"/>
        </mxCell>
        <mxCell id="_kbIOJYJlD1pCjOppb1s-45" value="+ 주문을 결재 한다. ( 주문 )" style="text;strokeColor=none;fillColor=none;align=left;verticalAlign=top;spacingLeft=4;spacingRight=4;overflow=hidden;rotatable=0;points=[[0,0.5],[1,0.5]];portConstraint=eastwest;" parent="_kbIOJYJlD1pCjOppb1s-42" vertex="1">
          <mxGeometry y="60" width="230" height="100" as="geometry"/>
        </mxCell>
        <mxCell id="_kbIOJYJlD1pCjOppb1s-46" value="제품 저장소" style="swimlane;fontStyle=1;align=center;verticalAlign=top;childLayout=stackLayout;horizontal=1;startSize=26;horizontalStack=0;resizeParent=1;resizeParentMax=0;resizeLast=0;collapsible=1;marginBottom=0;" parent="1" vertex="1">
          <mxGeometry x="100" y="370" width="140" height="86" as="geometry"/>
        </mxCell>
        <mxCell id="_kbIOJYJlD1pCjOppb1s-47" value="+ field: type" style="text;strokeColor=none;fillColor=none;align=left;verticalAlign=top;spacingLeft=4;spacingRight=4;overflow=hidden;rotatable=0;points=[[0,0.5],[1,0.5]];portConstraint=eastwest;" parent="_kbIOJYJlD1pCjOppb1s-46" vertex="1">
          <mxGeometry y="26" width="140" height="26" as="geometry"/>
        </mxCell>
        <mxCell id="_kbIOJYJlD1pCjOppb1s-48" value="" style="line;strokeWidth=1;fillColor=none;align=left;verticalAlign=middle;spacingTop=-1;spacingLeft=3;spacingRight=3;rotatable=0;labelPosition=right;points=[];portConstraint=eastwest;" parent="_kbIOJYJlD1pCjOppb1s-46" vertex="1">
          <mxGeometry y="52" width="140" height="8" as="geometry"/>
        </mxCell>
        <mxCell id="_kbIOJYJlD1pCjOppb1s-49" value="+ list" style="text;strokeColor=none;fillColor=none;align=left;verticalAlign=top;spacingLeft=4;spacingRight=4;overflow=hidden;rotatable=0;points=[[0,0.5],[1,0.5]];portConstraint=eastwest;" parent="_kbIOJYJlD1pCjOppb1s-46" vertex="1">
          <mxGeometry y="60" width="140" height="26" as="geometry"/>
        </mxCell>
        <mxCell id="_kbIOJYJlD1pCjOppb1s-52" style="edgeStyle=orthogonalEdgeStyle;rounded=0;orthogonalLoop=1;jettySize=auto;html=1;entryX=1;entryY=0.5;entryDx=0;entryDy=0;" parent="1" source="_kbIOJYJlD1pCjOppb1s-47" target="_kbIOJYJlD1pCjOppb1s-6" edge="1">
          <mxGeometry relative="1" as="geometry"/>
        </mxCell>
        <mxCell id="_kbIOJYJlD1pCjOppb1s-57" style="edgeStyle=orthogonalEdgeStyle;rounded=0;orthogonalLoop=1;jettySize=auto;html=1;entryX=0.466;entryY=1.032;entryDx=0;entryDy=0;entryPerimeter=0;dashed=1;endArrow=block;endFill=0;" parent="1" source="_kbIOJYJlD1pCjOppb1s-53" target="_kbIOJYJlD1pCjOppb1s-49" edge="1">
          <mxGeometry relative="1" as="geometry"/>
        </mxCell>
        <mxCell id="_kbIOJYJlD1pCjOppb1s-53" value="제품 저장소 JPA" style="swimlane;fontStyle=1;align=center;verticalAlign=top;childLayout=stackLayout;horizontal=1;startSize=26;horizontalStack=0;resizeParent=1;resizeParentMax=0;resizeLast=0;collapsible=1;marginBottom=0;" parent="1" vertex="1">
          <mxGeometry x="100" y="500" width="140" height="86" as="geometry"/>
        </mxCell>
        <mxCell id="_kbIOJYJlD1pCjOppb1s-54" value="+ field: type" style="text;strokeColor=none;fillColor=none;align=left;verticalAlign=top;spacingLeft=4;spacingRight=4;overflow=hidden;rotatable=0;points=[[0,0.5],[1,0.5]];portConstraint=eastwest;" parent="_kbIOJYJlD1pCjOppb1s-53" vertex="1">
          <mxGeometry y="26" width="140" height="26" as="geometry"/>
        </mxCell>
        <mxCell id="_kbIOJYJlD1pCjOppb1s-56" value="+ list" style="text;strokeColor=none;fillColor=none;align=left;verticalAlign=top;spacingLeft=4;spacingRight=4;overflow=hidden;rotatable=0;points=[[0,0.5],[1,0.5]];portConstraint=eastwest;" parent="_kbIOJYJlD1pCjOppb1s-53" vertex="1">
          <mxGeometry y="52" width="140" height="26" as="geometry"/>
        </mxCell>
        <mxCell id="_kbIOJYJlD1pCjOppb1s-55" value="" style="line;strokeWidth=1;fillColor=none;align=left;verticalAlign=middle;spacingTop=-1;spacingLeft=3;spacingRight=3;rotatable=0;labelPosition=right;points=[];portConstraint=eastwest;" parent="_kbIOJYJlD1pCjOppb1s-53" vertex="1">
          <mxGeometry y="78" width="140" height="8" as="geometry"/>
        </mxCell>
        <mxCell id="_kbIOJYJlD1pCjOppb1s-60" value="카트 도메인 서비스" style="swimlane;fontStyle=1;align=center;verticalAlign=top;childLayout=stackLayout;horizontal=1;startSize=26;horizontalStack=0;resizeParent=1;resizeParentMax=0;resizeLast=0;collapsible=1;marginBottom=0;" parent="1" vertex="1">
          <mxGeometry x="280" y="369" width="230" height="160" as="geometry"/>
        </mxCell>
        <mxCell id="_kbIOJYJlD1pCjOppb1s-61" value="+ field: type" style="text;strokeColor=none;fillColor=none;align=left;verticalAlign=top;spacingLeft=4;spacingRight=4;overflow=hidden;rotatable=0;points=[[0,0.5],[1,0.5]];portConstraint=eastwest;" parent="_kbIOJYJlD1pCjOppb1s-60" vertex="1">
          <mxGeometry y="26" width="230" height="26" as="geometry"/>
        </mxCell>
        <mxCell id="_kbIOJYJlD1pCjOppb1s-62" value="" style="line;strokeWidth=1;fillColor=none;align=left;verticalAlign=middle;spacingTop=-1;spacingLeft=3;spacingRight=3;rotatable=0;labelPosition=right;points=[];portConstraint=eastwest;" parent="_kbIOJYJlD1pCjOppb1s-60" vertex="1">
          <mxGeometry y="52" width="230" height="8" as="geometry"/>
        </mxCell>
        <mxCell id="_kbIOJYJlD1pCjOppb1s-63" value="+ 카트에 담긴 물건을 조회한다.( 사용자 )&#xa;+ 선택된 제품을 주문한다. ( 사용자, 제품 )" style="text;strokeColor=none;fillColor=none;align=left;verticalAlign=top;spacingLeft=4;spacingRight=4;overflow=hidden;rotatable=0;points=[[0,0.5],[1,0.5]];portConstraint=eastwest;" parent="_kbIOJYJlD1pCjOppb1s-60" vertex="1">
          <mxGeometry y="60" width="230" height="100" as="geometry"/>
        </mxCell>
        <mxCell id="_kbIOJYJlD1pCjOppb1s-65" value="카트 저장소" style="swimlane;fontStyle=1;align=center;verticalAlign=top;childLayout=stackLayout;horizontal=1;startSize=26;horizontalStack=0;resizeParent=1;resizeParentMax=0;resizeLast=0;collapsible=1;marginBottom=0;" parent="1" vertex="1">
          <mxGeometry x="530" y="470" width="160" height="86" as="geometry"/>
        </mxCell>
        <mxCell id="_kbIOJYJlD1pCjOppb1s-66" value="+ field: type" style="text;strokeColor=none;fillColor=none;align=left;verticalAlign=top;spacingLeft=4;spacingRight=4;overflow=hidden;rotatable=0;points=[[0,0.5],[1,0.5]];portConstraint=eastwest;" parent="_kbIOJYJlD1pCjOppb1s-65" vertex="1">
          <mxGeometry y="26" width="160" height="26" as="geometry"/>
        </mxCell>
        <mxCell id="_kbIOJYJlD1pCjOppb1s-67" value="" style="line;strokeWidth=1;fillColor=none;align=left;verticalAlign=middle;spacingTop=-1;spacingLeft=3;spacingRight=3;rotatable=0;labelPosition=right;points=[];portConstraint=eastwest;" parent="_kbIOJYJlD1pCjOppb1s-65" vertex="1">
          <mxGeometry y="52" width="160" height="8" as="geometry"/>
        </mxCell>
        <mxCell id="_kbIOJYJlD1pCjOppb1s-68" value="+ method(type): type" style="text;strokeColor=none;fillColor=none;align=left;verticalAlign=top;spacingLeft=4;spacingRight=4;overflow=hidden;rotatable=0;points=[[0,0.5],[1,0.5]];portConstraint=eastwest;" parent="_kbIOJYJlD1pCjOppb1s-65" vertex="1">
          <mxGeometry y="60" width="160" height="26" as="geometry"/>
        </mxCell>
        <mxCell id="_kbIOJYJlD1pCjOppb1s-69" style="edgeStyle=orthogonalEdgeStyle;rounded=0;orthogonalLoop=1;jettySize=auto;html=1;entryX=0.5;entryY=0;entryDx=0;entryDy=0;dashed=1;endArrow=block;endFill=1;exitX=0.489;exitY=1.017;exitDx=0;exitDy=0;exitPerimeter=0;" parent="1" source="_kbIOJYJlD1pCjOppb1s-41" target="_kbIOJYJlD1pCjOppb1s-46" edge="1">
          <mxGeometry relative="1" as="geometry">
            <mxPoint x="495" y="310" as="sourcePoint"/>
            <mxPoint x="409.8299999999999" y="377.8799999999999" as="targetPoint"/>
            <Array as="points">
              <mxPoint x="495" y="302"/>
              <mxPoint x="495" y="340"/>
              <mxPoint x="170" y="340"/>
            </Array>
          </mxGeometry>
        </mxCell>
        <mxCell id="_kbIOJYJlD1pCjOppb1s-74" style="edgeStyle=orthogonalEdgeStyle;rounded=0;orthogonalLoop=1;jettySize=auto;html=1;entryX=0.5;entryY=1;entryDx=0;entryDy=0;dashed=1;endArrow=block;endFill=0;" parent="1" source="_kbIOJYJlD1pCjOppb1s-70" target="_kbIOJYJlD1pCjOppb1s-18" edge="1">
          <mxGeometry relative="1" as="geometry"/>
        </mxCell>
        <mxCell id="_kbIOJYJlD1pCjOppb1s-70" value="결재 인터페이스" style="swimlane;fontStyle=1;align=center;verticalAlign=top;childLayout=stackLayout;horizontal=1;startSize=26;horizontalStack=0;resizeParent=1;resizeParentMax=0;resizeLast=0;collapsible=1;marginBottom=0;" parent="1" vertex="1">
          <mxGeometry x="939.76" y="529" width="160" height="86" as="geometry"/>
        </mxCell>
        <mxCell id="_kbIOJYJlD1pCjOppb1s-71" value="+ field: type" style="text;strokeColor=none;fillColor=none;align=left;verticalAlign=top;spacingLeft=4;spacingRight=4;overflow=hidden;rotatable=0;points=[[0,0.5],[1,0.5]];portConstraint=eastwest;" parent="_kbIOJYJlD1pCjOppb1s-70" vertex="1">
          <mxGeometry y="26" width="160" height="26" as="geometry"/>
        </mxCell>
        <mxCell id="_kbIOJYJlD1pCjOppb1s-72" value="" style="line;strokeWidth=1;fillColor=none;align=left;verticalAlign=middle;spacingTop=-1;spacingLeft=3;spacingRight=3;rotatable=0;labelPosition=right;points=[];portConstraint=eastwest;" parent="_kbIOJYJlD1pCjOppb1s-70" vertex="1">
          <mxGeometry y="52" width="160" height="8" as="geometry"/>
        </mxCell>
        <mxCell id="_kbIOJYJlD1pCjOppb1s-73" value="+ method(type): type" style="text;strokeColor=none;fillColor=none;align=left;verticalAlign=top;spacingLeft=4;spacingRight=4;overflow=hidden;rotatable=0;points=[[0,0.5],[1,0.5]];portConstraint=eastwest;" parent="_kbIOJYJlD1pCjOppb1s-70" vertex="1">
          <mxGeometry y="60" width="160" height="26" as="geometry"/>
        </mxCell>
        <mxCell id="_kbIOJYJlD1pCjOppb1s-75" style="edgeStyle=orthogonalEdgeStyle;rounded=0;orthogonalLoop=1;jettySize=auto;html=1;entryX=0.5;entryY=0;entryDx=0;entryDy=0;dashed=1;endArrow=block;endFill=1;" parent="1" target="_kbIOJYJlD1pCjOppb1s-14" edge="1">
          <mxGeometry relative="1" as="geometry">
            <mxPoint x="495" y="309.9999999999999" as="sourcePoint"/>
            <mxPoint x="409.8299999999999" y="377.88" as="targetPoint"/>
            <Array as="points">
              <mxPoint x="495" y="340"/>
              <mxPoint x="820" y="340"/>
            </Array>
          </mxGeometry>
        </mxCell>
      </root>
    </mxGraphModel>
  </diagram>
</mxfile>
